{
    "asset" : {
        "generator" : "Khronos glTF Blender I/O v3.2.40",
        "version" : "2.0"
    },
    "scene" : 0,
    "scenes" : [
        {
            "name" : "Scene",
            "nodes" : [
                0,
                1,
                2,
                3,
                4,
                5,
                6
            ]
        }
    ],
    "nodes" : [
        {
            "mesh" : 0,
            "name" : "Cube.007",
            "scale" : [
                0.018750229850411415,
                0.018750229850411415,
                0.018750229850411415
            ],
            "translation" : [
                3.5150198936462402,
                0.8668427467346191,
                0.0636255070567131
            ]
        },
        {
            "mesh" : 1,
            "name" : "Cylinder.001",
            "rotation" : [
                0,
                0,
                -0.7071068286895752,
                0.7071068286895752
            ],
            "scale" : [
                0.6179140210151672,
                0.6179140210151672,
                0.6179140210151672
            ],
            "translation" : [
                -0.5255866050720215,
                0.9981474876403809,
                -2.0221872329711914
            ]
        },
        {
            "mesh" : 2,
            "name" : "Cube.004",
            "scale" : [
                0.018750229850411415,
                0.018750229850411415,
                0.018750229850411415
            ],
            "translation" : [
                2.828852653503418,
                -0.2163863331079483,
                0.063625268638134
            ]
        },
        {
            "mesh" : 3,
            "name" : "Cube.000",
            "scale" : [
                0.018750229850411415,
                0.018750229850411415,
                0.018750229850411415
            ],
            "translation" : [
                3.7996342182159424,
                1.3930613994598389,
                0.0636255070567131
            ]
        },
        {
            "mesh" : 4,
            "name" : "Cylinder",
            "rotation" : [
                0,
                0,
                -0.7071068286895752,
                0.7071068286895752
            ],
            "scale" : [
                0.6179140210151672,
                0.6179140210151672,
                0.6179140210151672
            ],
            "translation" : [
                1.764589786529541,
                0.8448095321655273,
                -2.0221872329711914
            ]
        },
        {
            "mesh" : 5,
            "name" : "Cube.001",
            "scale" : [
                0.055555880069732666,
                0.055555880069732666,
                0.055555880069732666
            ],
            "translation" : [
                3.5150203704833984,
                0.6222600936889648,
                0.14757734537124634
            ]
        },
        {
            "mesh" : 6,
            "name" : "Cube.003",
            "scale" : [
                0.018750229850411415,
                0.018750229850411415,
                0.018750229850411415
            ],
            "translation" : [
                3.5150198936462402,
                0.8668427467346191,
                0.0636255070567131
            ]
        }
    ],
    "materials" : [
        {
            "doubleSided" : true,
            "name" : "Material.001",
            "pbrMetallicRoughness" : {}
        },
        {
            "doubleSided" : true,
            "name" : "Material.010",
            "pbrMetallicRoughness" : {}
        },
        {
            "doubleSided" : true,
            "name" : "Material.006",
            "pbrMetallicRoughness" : {}
        },
        {
            "doubleSided" : true,
            "name" : "Material.005",
            "pbrMetallicRoughness" : {}
        },
        {
            "doubleSided" : true,
            "name" : "Material",
            "pbrMetallicRoughness" : {}
        },
        {
            "doubleSided" : true,
            "name" : "Material.002",
            "pbrMetallicRoughness" : {}
        },
        {
            "doubleSided" : true,
            "name" : "Material.009",
            "pbrMetallicRoughness" : {}
        }
    ],
    "meshes" : [
        {
            "name" : "Cube.002",
            "primitives" : [
                {
                    "attributes" : {
                        "POSITION" : 0,
                        "NORMAL" : 1,
                        "COLOR_0" : 2
                    },
                    "indices" : 3,
                    "material" : 0
                }
            ]
        },
        {
            "name" : "Cylinder.002",
            "primitives" : [
                {
                    "attributes" : {
                        "POSITION" : 4,
                        "NORMAL" : 5
                    },
                    "indices" : 6,
                    "material" : 1
                }
            ]
        },
        {
            "name" : "Cube.000",
            "primitives" : [
                {
                    "attributes" : {
                        "POSITION" : 7,
                        "NORMAL" : 8
                    },
                    "indices" : 9,
                    "material" : 2
                }
            ]
        },
        {
            "name" : "Cube.003",
            "primitives" : [
                {
                    "attributes" : {
                        "POSITION" : 10,
                        "NORMAL" : 11
                    },
                    "indices" : 12,
                    "material" : 3
                }
            ]
        },
        {
            "name" : "Cylinder",
            "primitives" : [
                {
                    "attributes" : {
                        "POSITION" : 13,
                        "NORMAL" : 14
                    },
                    "indices" : 15,
                    "material" : 4
                }
            ]
        },
        {
            "name" : "Cube.001",
            "primitives" : [
                {
                    "attributes" : {
                        "POSITION" : 16,
                        "NORMAL" : 17
                    },
                    "indices" : 18,
                    "material" : 5
                }
            ]
        },
        {
            "name" : "Cube.004",
            "primitives" : [
                {
                    "attributes" : {
                        "POSITION" : 19,
                        "NORMAL" : 20,
                        "COLOR_0" : 21
                    },
                    "indices" : 22,
                    "material" : 6
                }
            ]
        }
    ],
    "accessors" : [
        {
            "bufferView" : 0,
            "componentType" : 5126,
            "count" : 202,
            "max" : [
                -15.45809555053711,
                9.601284980773926,
                1.000001072883606
            ],
            "min" : [
                -47.3601188659668,
                -11.468429565429688,
                -12.773367881774902
            ],
            "type" : "VEC3"
        },
        {
            "bufferView" : 1,
            "componentType" : 5126,
            "count" : 202,
            "type" : "VEC3"
        },
        {
            "bufferView" : 2,
            "componentType" : 5123,
            "count" : 202,
            "normalized" : true,
            "type" : "VEC4"
        },
        {
            "bufferView" : 3,
            "componentType" : 5123,
            "count" : 1188,
            "type" : "SCALAR"
        },
        {
            "bufferView" : 4,
            "componentType" : 5126,
            "count" : 160,
            "max" : [
                -0.17175422608852386,
                2.025231122970581,
                3.5957794189453125
            ],
            "min" : [
                -0.9717546105384827,
                -7.131679534912109,
                2.795779228210449
            ],
            "type" : "VEC3"
        },
        {
            "bufferView" : 5,
            "componentType" : 5126,
            "count" : 160,
            "type" : "VEC3"
        },
        {
            "bufferView" : 6,
            "componentType" : 5123,
            "count" : 282,
            "type" : "SCALAR"
        },
        {
            "bufferView" : 7,
            "componentType" : 5126,
            "count" : 34,
            "max" : [
                -19.35336685180664,
                18.719018936157227,
                -1.1971324682235718
            ],
            "min" : [
                -52.16658020019531,
                -20.40886878967285,
                -10.268838882446289
            ],
            "type" : "VEC3"
        },
        {
            "bufferView" : 8,
            "componentType" : 5126,
            "count" : 34,
            "type" : "VEC3"
        },
        {
            "bufferView" : 9,
            "componentType" : 5123,
            "count" : 156,
            "type" : "SCALAR"
        },
        {
            "bufferView" : 10,
            "componentType" : 5126,
            "count" : 68,
            "max" : [
                -16.587039947509766,
                7.278719425201416,
                -1.1971341371536255
            ],
            "min" : [
                -60.69548797607422,
                -15.991501808166504,
                -10.268838882446289
            ],
            "type" : "VEC3"
        },
        {
            "bufferView" : 11,
            "componentType" : 5126,
            "count" : 68,
            "type" : "VEC3"
        },
        {
            "bufferView" : 12,
            "componentType" : 5123,
            "count" : 414,
            "type" : "SCALAR"
        },
        {
            "bufferView" : 13,
            "componentType" : 5126,
            "count" : 64,
            "max" : [
                0.668388307094574,
                0.9204550385475159,
                4.195779800415039
            ],
            "min" : [
                -1.3316118717193604,
                -1.6002426147460938,
                2.195779323577881
            ],
            "type" : "VEC3"
        },
        {
            "bufferView" : 14,
            "componentType" : 5126,
            "count" : 64,
            "type" : "VEC3"
        },
        {
            "bufferView" : 15,
            "componentType" : 5123,
            "count" : 372,
            "type" : "SCALAR"
        },
        {
            "bufferView" : 16,
            "componentType" : 5126,
            "count" : 224,
            "max" : [
                26.445608139038086,
                4.164334774017334,
                0.24013781547546387
            ],
            "min" : [
                -15.274604797363281,
                -49.25760269165039,
                -7.344031810760498
            ],
            "type" : "VEC3"
        },
        {
            "bufferView" : 17,
            "componentType" : 5126,
            "count" : 224,
            "type" : "VEC3"
        },
        {
            "bufferView" : 18,
            "componentType" : 5123,
            "count" : 1368,
            "type" : "SCALAR"
        },
        {
            "bufferView" : 19,
            "componentType" : 5126,
            "count" : 1185,
            "max" : [
                1.5821585655212402,
                64.67036437988281,
                3.0138797760009766
            ],
            "min" : [
                -438.9799499511719,
                -88.87701416015625,
                -15.458539962768555
            ],
            "type" : "VEC3"
        },
        {
            "bufferView" : 20,
            "componentType" : 5126,
            "count" : 1185,
            "type" : "VEC3"
        },
        {
            "bufferView" : 21,
            "componentType" : 5123,
            "count" : 1185,
            "normalized" : true,
            "type" : "VEC4"
        },
        {
            "bufferView" : 22,
            "componentType" : 5123,
            "count" : 2580,
            "type" : "SCALAR"
        }
    ],
    "bufferViews" : [
        {
            "buffer" : 0,
            "byteLength" : 2424,
            "byteOffset" : 0
        },
        {
            "buffer" : 0,
            "byteLength" : 2424,
            "byteOffset" : 2424
        },
        {
            "buffer" : 0,
            "byteLength" : 1616,
            "byteOffset" : 4848
        },
        {
            "buffer" : 0,
            "byteLength" : 2376,
            "byteOffset" : 6464
        },
        {
            "buffer" : 0,
            "byteLength" : 1920,
            "byteOffset" : 8840
        },
        {
            "buffer" : 0,
            "byteLength" : 1920,
            "byteOffset" : 10760
        },
        {
            "buffer" : 0,
            "byteLength" : 564,
            "byteOffset" : 12680
        },
        {
            "buffer" : 0,
            "byteLength" : 408,
            "byteOffset" : 13244
        },
        {
            "buffer" : 0,
            "byteLength" : 408,
            "byteOffset" : 13652
        },
        {
            "buffer" : 0,
            "byteLength" : 312,
            "byteOffset" : 14060
        },
        {
            "buffer" : 0,
            "byteLength" : 816,
            "byteOffset" : 14372
        },
        {
            "buffer" : 0,
            "byteLength" : 816,
            "byteOffset" : 15188
        },
        {
            "buffer" : 0,
            "byteLength" : 828,
            "byteOffset" : 16004
        },
        {
            "buffer" : 0,
            "byteLength" : 768,
            "byteOffset" : 16832
        },
        {
            "buffer" : 0,
            "byteLength" : 768,
            "byteOffset" : 17600
        },
        {
            "buffer" : 0,
            "byteLength" : 744,
            "byteOffset" : 18368
        },
        {
            "buffer" : 0,
            "byteLength" : 2688,
            "byteOffset" : 19112
        },
        {
            "buffer" : 0,
            "byteLength" : 2688,
            "byteOffset" : 21800
        },
        {
            "buffer" : 0,
            "byteLength" : 2736,
            "byteOffset" : 24488
        },
        {
            "buffer" : 0,
            "byteLength" : 14220,
            "byteOffset" : 27224
        },
        {
            "buffer" : 0,
            "byteLength" : 14220,
            "byteOffset" : 41444
        },
        {
            "buffer" : 0,
            "byteLength" : 9480,
            "byteOffset" : 55664
        },
        {
            "buffer" : 0,
            "byteLength" : 5160,
            "byteOffset" : 65144
        }
    ],
    "buffers" : [
        {
            "byteLength" : 70304,
            "uri" : "data:application/octet-stream;base64,"
        }
    ]
}
